# xmcd
#
# Track frame offsets: 
#        150
#        14661
#        29077
#        46995
#        69366
#        86942
#        110787
#        124911
#        137016
#        157592
#        176077
#        204759
#
# Disc length: 2926 seconds
#
# Revision: 0
# Processed by: cddbd v1.5.2PL0 Copyright (c) Steve Scherf et al.
# Submitted via: ExactAudioCopy v1.0b3
#
DISCID=a60b6c0c
DTITLE=David Olney - When The Deal Goes Down
DYEAR=2014
DGENRE=Blues
TTITLE0=When The Deal Goes Down
TTITLE1=Little Bird (What I Do)
TTITLE2=Servant, Job
TTITLE3=Soldier Of Misfortune
TTITLE4=Something In Blue
TTITLE5=Scarecrow Man
TTITLE6=Why So Blue?
TTITLE7=Mister Stay At Home
TTITLE8=Roll This Stone
TTITLE9=No Trace
TTITLE10=Sad Saturday Night
TTITLE11=Big Blue Hole
EXTD=
EXTT0=
EXTT1=
EXTT2=
EXTT3=
EXTT4=
EXTT5=
EXTT6=
EXTT7=
EXTT8=
EXTT9=
EXTT10=
EXTT11=
PLAYORDER=
